<svg id="visual" viewBox="0 0 960 200" width="960" height="200" xmlns="http://www.w3.org/2000/svg" xmlns:xlink="http://www.w3.org/1999/xlink" version="1.1"><rect x="0" y="0" width="960" height="200" fill="#5800ff"></rect><path d="M0 105L20 103.5C40 102 80 99 120 94.3C160 89.7 200 83.3 240 81.3C280 79.3 320 81.7 360 87.8C400 94 440 104 480 105.2C520 106.3 560 98.7 600 99C640 99.3 680 107.7 720 104.3C760 101 800 86 840 86C880 86 920 101 940 108.5L960 116L960 201L940 201C920 201 880 201 840 201C800 201 760 201 720 201C680 201 640 201 600 201C560 201 520 201 480 201C440 201 400 201 360 201C320 201 280 201 240 201C200 201 160 201 120 201C80 201 40 201 20 201L0 201Z" fill="#ffc600"></path><path d="M0 97L20 99.8C40 102.7 80 108.3 120 110.7C160 113 200 112 240 110C280 108 320 105 360 106.7C400 108.3 440 114.7 480 115C520 115.3 560 109.7 600 110.2C640 110.7 680 117.3 720 121.7C760 126 800 128 840 124.3C880 120.7 920 111.3 940 106.7L960 102L960 201L940 201C920 201 880 201 840 201C800 201 760 201 720 201C680 201 640 201 600 201C560 201 520 201 480 201C440 201 400 201 360 201C320 201 280 201 240 201C200 201 160 201 120 201C80 201 40 201 20 201L0 201Z" fill="#fea503"></path><path d="M0 145L20 140.3C40 135.7 80 126.3 120 124.3C160 122.3 200 127.7 240 133.5C280 139.3 320 145.7 360 145.2C400 144.7 440 137.3 480 131.3C520 125.3 560 120.7 600 123.3C640 126 680 136 720 135.7C760 135.3 800 124.7 840 124.2C880 123.7 920 133.3 940 138.2L960 143L960 201L940 201C920 201 880 201 840 201C800 201 760 201 720 201C680 201 640 201 600 201C560 201 520 201 480 201C440 201 400 201 360 201C320 201 280 201 240 201C200 201 160 201 120 201C80 201 40 201 20 201L0 201Z" fill="#f88317"></path><path d="M0 142L20 144.3C40 146.7 80 151.3 120 154.7C160 158 200 160 240 161.5C280 163 320 164 360 159.8C400 155.7 440 146.3 480 141.5C520 136.7 560 136.3 600 139.7C640 143 680 150 720 154C760 158 800 159 840 158.5C880 158 920 156 940 155L960 154L960 201L940 201C920 201 880 201 840 201C800 201 760 201 720 201C680 201 640 201 600 201C560 201 520 201 480 201C440 201 400 201 360 201C320 201 280 201 240 201C200 201 160 201 120 201C80 201 40 201 20 201L0 201Z" fill="#ed6226"></path><path d="M0 164L20 166C40 168 80 172 120 172.8C160 173.7 200 171.3 240 172C280 172.7 320 176.3 360 177.7C400 179 440 178 480 177.2C520 176.3 560 175.7 600 173.2C640 170.7 680 166.3 720 164C760 161.7 800 161.3 840 162.2C880 163 920 165 940 166L960 167L960 201L940 201C920 201 880 201 840 201C800 201 760 201 720 201C680 201 640 201 600 201C560 201 520 201 480 201C440 201 400 201 360 201C320 201 280 201 240 201C200 201 160 201 120 201C80 201 40 201 20 201L0 201Z" fill="#dd3f31"></path></svg>