<svg id="visual" viewBox="0 0 960 200" width="960" height="200" xmlns="http://www.w3.org/2000/svg" xmlns:xlink="http://www.w3.org/1999/xlink" version="1.1"><rect x="0" y="0" width="960" height="200" fill="#5800ff"></rect><path d="M0 93L20 94.5C40 96 80 99 120 103.7C160 108.3 200 114.7 240 116.7C280 118.7 320 116.3 360 110.2C400 104 440 94 480 92.8C520 91.7 560 99.3 600 99C640 98.7 680 90.3 720 93.7C760 97 800 112 840 112C880 112 920 97 940 89.5L960 82L960 0L940 0C920 0 880 0 840 0C800 0 760 0 720 0C680 0 640 0 600 0C560 0 520 0 480 0C440 0 400 0 360 0C320 0 280 0 240 0C200 0 160 0 120 0C80 0 40 0 20 0L0 0Z" fill="#ffc600"></path><path d="M0 101L20 98.2C40 95.3 80 89.7 120 87.3C160 85 200 86 240 88C280 90 320 93 360 91.3C400 89.7 440 83.3 480 83C520 82.7 560 88.3 600 87.8C640 87.3 680 80.7 720 76.3C760 72 800 70 840 73.7C880 77.3 920 86.7 940 91.3L960 96L960 0L940 0C920 0 880 0 840 0C800 0 760 0 720 0C680 0 640 0 600 0C560 0 520 0 480 0C440 0 400 0 360 0C320 0 280 0 240 0C200 0 160 0 120 0C80 0 40 0 20 0L0 0Z" fill="#fea503"></path><path d="M0 53L20 57.7C40 62.3 80 71.7 120 73.7C160 75.7 200 70.3 240 64.5C280 58.7 320 52.3 360 52.8C400 53.3 440 60.7 480 66.7C520 72.7 560 77.3 600 74.7C640 72 680 62 720 62.3C760 62.7 800 73.3 840 73.8C880 74.3 920 64.7 940 59.8L960 55L960 0L940 0C920 0 880 0 840 0C800 0 760 0 720 0C680 0 640 0 600 0C560 0 520 0 480 0C440 0 400 0 360 0C320 0 280 0 240 0C200 0 160 0 120 0C80 0 40 0 20 0L0 0Z" fill="#f88317"></path><path d="M0 56L20 53.7C40 51.3 80 46.7 120 43.3C160 40 200 38 240 36.5C280 35 320 34 360 38.2C400 42.3 440 51.7 480 56.5C520 61.3 560 61.7 600 58.3C640 55 680 48 720 44C760 40 800 39 840 39.5C880 40 920 42 940 43L960 44L960 0L940 0C920 0 880 0 840 0C800 0 760 0 720 0C680 0 640 0 600 0C560 0 520 0 480 0C440 0 400 0 360 0C320 0 280 0 240 0C200 0 160 0 120 0C80 0 40 0 20 0L0 0Z" fill="#ed6226"></path><path d="M0 34L20 32C40 30 80 26 120 25.2C160 24.3 200 26.7 240 26C280 25.3 320 21.7 360 20.3C400 19 440 20 480 20.8C520 21.7 560 22.3 600 24.8C640 27.3 680 31.7 720 34C760 36.3 800 36.7 840 35.8C880 35 920 33 940 32L960 31L960 0L940 0C920 0 880 0 840 0C800 0 760 0 720 0C680 0 640 0 600 0C560 0 520 0 480 0C440 0 400 0 360 0C320 0 280 0 240 0C200 0 160 0 120 0C80 0 40 0 20 0L0 0Z" fill="#dd3f31"></path></svg>